<svg xmlns="http://www.w3.org/2000/svg" width="64" height="64" viewBox="0 0 64 64" version="1.1">
	<path d="M 15.944 13.250 C 8.818 22.064, 8.263 22.515, 4.174 22.810 C 0.005 23.112, -0.109 23.212, 0.191 26.310 L 0.500 29.500 31.380 29.765 C 53.332 29.953, 62.656 29.701, 63.630 28.892 C 64.383 28.267, 65.001 26.573, 65.002 25.128 C 65.003 22.663, 64.711 22.500, 60.301 22.500 L 55.600 22.500 48.276 13.500 C 41.216 4.824, 38 2.257, 38 5.298 C 38 6.092, 40.700 10.125, 44 14.259 C 47.300 18.393, 50 22.051, 50 22.388 C 50 22.724, 41.900 23, 32 23 C 22.100 23, 14 22.724, 14 22.388 C 14 22.051, 16.700 18.393, 20 14.259 C 23.300 10.125, 26 6.125, 26 5.371 C 26 2.185, 22.973 4.556, 15.944 13.250 M 0.232 26 C 0.232 27.925, 0.438 28.712, 0.689 27.750 C 0.941 26.788, 0.941 25.212, 0.689 24.250 C 0.438 23.288, 0.232 24.075, 0.232 26 M 7.920 46.750 L 11.591 59.500 32 59.500 L 52.409 59.500 56.080 46.750 L 59.750 34 32 34 L 4.250 34 7.920 46.750 M 18.518 43.156 C 19.571 50.858, 20.706 53.489, 22.376 52.103 C 24.463 50.371, 22.160 38.655, 19.638 38.169 C 17.952 37.844, 17.852 38.290, 18.518 43.156 M 30.206 45.250 C 30.435 50.897, 30.832 52.500, 32 52.500 C 33.168 52.500, 33.565 50.897, 33.794 45.250 C 34.069 38.471, 33.952 38, 32 38 C 30.048 38, 29.931 38.471, 30.206 45.250 M 42.633 38.785 C 41.471 40.664, 40.821 51.771, 41.835 52.398 C 43.391 53.360, 44.700 50.281, 45.514 43.750 C 46.118 38.906, 45.985 38, 44.674 38 C 43.818 38, 42.900 38.353, 42.633 38.785" stroke="none" fill="currentColor" fill-rule="evenodd"/>
</svg>