<svg xmlns="http://www.w3.org/2000/svg" width="64" height="64" viewBox="0 0 64 64" version="1.1">
	<path d="M 18.994 0.934 C 1.091 6.380, -5.708 27.980, 6.006 42.191 C 13.027 50.709, 27.653 53.729, 37.093 48.610 L 41.500 46.221 50.661 55.252 C 57.082 61.582, 60.303 64.098, 61.433 63.664 C 65.397 62.143, 64.304 59.843, 55.252 50.661 L 46.221 41.500 48.610 37.093 C 53.722 27.665, 50.709 13.027, 42.216 6.026 C 35.983 0.889, 26.197 -1.257, 18.994 0.934 M 23.500 6.460 C 22.950 6.661, 21.271 7.096, 19.768 7.427 C 16.332 8.184, 10.394 13.336, 8.307 17.372 C 7.433 19.064, 6.684 22.721, 6.644 25.500 C 6.496 35.723, 14.006 43.921, 24.301 44.775 C 32.425 45.449, 39.167 41.455, 43.207 33.575 C 47.430 25.337, 43.376 13.150, 35 8.904 C 31.439 7.099, 25.313 5.797, 23.500 6.460" stroke="none" fill="currentColor" fill-rule="evenodd"/>
</svg>