<svg xmlns="http://www.w3.org/2000/svg" width="64" height="64" viewBox="0 0 64 64" version="1.1">
	<path d="M 25.481 1.394 C 21.223 3.249, 16.221 9.305, 15.420 13.575 C 13.257 25.107, 25.098 36.384, 35.955 33.132 C 48.108 29.491, 52.695 15.417, 44.698 6.309 C 39.462 0.345, 32.169 -1.520, 25.481 1.394 M 15.992 41.250 C 9.066 45.403, 4.912 51.786, 4.671 58.645 L 4.500 63.500 32 63.500 L 59.500 63.500 59.329 58.645 C 59.088 51.786, 54.934 45.403, 48.008 41.250 C 42.804 38.129, 42.168 38, 32 38 C 21.832 38, 21.196 38.129, 15.992 41.250" stroke="none" fill="currentColor" fill-rule="evenodd"/>
</svg>